<?xml version="1.0" standalone="no"?>
<!DOCTYPE svg PUBLIC "-//W3C//DTD SVG 20010904//EN"
 "http://www.w3.org/TR/2001/REC-SVG-20010904/DTD/svg10.dtd">
<svg version="1.0" xmlns="http://www.w3.org/2000/svg"
 width="800.000000pt" height="480.000000pt" viewBox="0 0 800.000000 480.000000"
 preserveAspectRatio="xMidYMid meet">
<metadata>
Created by potrace 1.15, written by Peter Selinger 2001-2017
</metadata>
<g transform="translate(0.000000,480.000000) scale(0.100000,-0.100000)"
fill="#000000" stroke="none">
<path d="M3819 4753 c-45 -106 -64 -202 -63 -333 0 -108 3 -135 25 -195 14
-38 38 -90 54 -115 l28 -44 37 81 c53 114 111 195 212 296 48 48 89 87 91 87
3 0 34 20 70 44 45 31 61 46 51 50 -8 3 -13 2 -10 -3 3 -5 -7 -11 -22 -14 -35
-7 -41 0 -11 12 13 5 18 10 11 10 -24 1 -51 -19 -46 -33 3 -8 1 -17 -5 -21 -6
-3 -9 0 -5 8 3 8 0 18 -6 22 -9 5 -9 10 -1 14 6 4 -6 15 -27 26 -20 11 -39 22
-42 25 -9 10 -61 30 -77 30 -17 0 -93 74 -93 91 0 5 -34 9 -75 9 l-76 0 -20
-47z"/>
<path d="M4654 4496 c-247 -64 -487 -253 -596 -471 -62 -121 -71 -159 -73
-307 -3 -122 -1 -141 19 -181 19 -41 136 -157 157 -157 13 0 11 13 -7 38 -9
13 -14 25 -12 27 2 2 32 -5 67 -15 34 -11 78 -20 97 -20 19 0 34 -4 34 -9 0
-5 31 -30 70 -56 l69 -46 88 15 c48 8 115 24 147 36 71 24 90 25 83 5 -4 -8
-2 -17 3 -20 31 -19 -13 -42 -150 -80 l-85 -23 37 -16 c21 -9 45 -16 55 -16
42 0 99 24 130 55 18 18 48 36 66 39 42 8 143 69 140 84 -2 7 1 12 6 12 5 0
11 9 14 20 3 11 1 20 -4 20 -5 0 -9 -7 -9 -15 0 -21 -19 -19 -26 3 -3 9 -14
33 -25 53 -25 48 -24 71 1 41 l20 -24 28 21 c43 30 158 156 188 204 14 23 37
58 50 77 29 44 71 165 77 222 2 24 2 34 0 23 -11 -43 -64 -59 -80 -23 -8 19
-12 14 -33 -43 -58 -154 -226 -345 -388 -443 -95 -56 -250 -113 -337 -121 -37
-4 -55 -3 -47 3 7 5 17 22 21 38 l8 29 14 -28 c12 -26 16 -28 48 -22 86 15
227 73 181 75 -11 0 -12 2 -2 8 10 7 8 13 -6 30 -11 12 -23 18 -28 14 -4 -4
-2 2 6 13 8 11 10 17 6 13 -12 -10 -39 29 -31 42 4 6 1 9 -5 8 -6 -2 -19 8
-28 22 -16 24 -16 25 3 10 31 -24 -31 54 -68 85 -40 33 -86 57 -154 79 -61 20
-77 36 -35 36 73 0 228 112 312 226 77 104 137 252 156 387 l6 47 -43 0 c-24
-1 -85 -12 -135 -24z"/>
<path d="M3735 3899 c-4 -12 -7 -36 -7 -55 0 -18 -7 -42 -16 -52 -23 -25 -121
-83 -143 -85 -13 -1 -19 -9 -19 -27 0 -26 3 -27 93 -41 l92 -15 65 28 c36 15
73 28 83 28 10 0 20 6 23 14 8 22 -15 99 -38 123 -11 12 -17 26 -14 32 4 5 2
12 -4 16 -5 3 -10 14 -10 24 0 13 -10 20 -37 25 -56 9 -61 8 -68 -15z"/>
<path d="M3295 3707 c-10 -50 2 -93 35 -131 16 -18 32 -44 35 -58 7 -29 98 13
-724 -333 -233 -99 -425 -185 -428 -192 -15 -39 37 -143 72 -143 8 0 287 115
620 256 403 169 613 253 626 249 13 -4 19 -2 19 9 0 9 5 16 10 16 6 0 10 -7
10 -15 0 -8 7 -15 15 -15 9 0 15 10 15 26 0 23 3 25 25 20 27 -7 32 3 14 21
-9 9 -7 10 10 6 16 -4 21 -13 21 -38 0 -58 -39 -186 -95 -310 -71 -159 -86
-216 -92 -360 -4 -103 0 -148 26 -314 27 -161 32 -218 30 -343 0 -82 1 -151 3
-154 3 -2 48 0 101 6 78 8 103 7 137 -5 73 -26 74 -25 99 76 18 71 81 489 81
534 0 47 110 -251 134 -365 18 -86 46 -314 46 -380 0 -25 -9 -81 -20 -125 -30
-120 -28 -131 39 -239 80 -127 111 -173 111 -161 0 6 1 151 3 322 1 172 -1
321 -5 332 -4 12 -20 21 -47 26 -63 10 -49 22 37 29 143 13 149 15 146 44 -1
15 -10 32 -19 38 -10 7 -14 18 -10 23 3 6 -1 14 -9 17 -9 3 -16 12 -16 18 0 7
-13 25 -30 39 -16 15 -30 34 -30 42 0 8 -6 18 -13 22 -14 8 -35 78 -43 142 -2
19 -12 40 -22 47 -12 10 -13 13 -3 14 10 0 12 8 6 33 -4 17 -11 50 -15 72 -9
43 -12 38 89 123 27 23 35 37 35 64 1 20 4 34 9 31 4 -2 7 8 7 22 0 16 -4 24
-11 19 -7 -4 -10 1 -7 11 1 10 9 20 17 23 9 3 12 0 9 -10 -3 -8 1 -25 8 -39
l15 -24 -6 30 c-3 17 -1 44 5 60 10 29 10 29 6 3 -2 -15 1 -25 5 -22 5 3 8
101 6 219 l-2 213 -44 7 c-48 7 -178 51 -198 67 -7 6 -14 5 -19 -3 -4 -7 -3
-9 4 -5 6 3 13 2 17 -4 4 -6 -4 -9 -19 -8 -13 1 -23 5 -20 9 2 4 -4 10 -13 12
-14 4 -13 5 4 6 18 1 13 9 -35 54 -76 71 -87 84 -113 142 -13 28 -24 51 -25
53 -1 2 -41 -13 -90 -32 -100 -41 -94 -39 -94 -26 0 5 12 17 28 25 15 9 18 13
7 10 -38 -13 -44 -10 -67 35 -26 51 -45 59 -78 32 -25 -20 -25 -32 6 -139 13
-48 -14 -20 -46 47 -19 39 -37 70 -42 70 -12 0 -10 -15 11 -67 10 -26 22 -64
26 -83 7 -31 6 -33 -9 -21 -9 7 -16 19 -16 25 0 19 -60 126 -71 126 -12 0 -13
6 21 -79 34 -82 33 -81 21 -81 -5 0 -14 13 -19 30 -13 36 -72 123 -79 116 -3
-2 7 -30 22 -61 14 -31 25 -61 23 -66 -2 -5 -27 22 -56 60 -42 55 -52 75 -47
94 5 18 -4 45 -33 98 l-40 72 -7 -36z m852 -479 c19 -9 21 -14 10 -27 -13 -17
-4 -13 43 19 39 26 54 29 75 13 13 -10 14 -14 5 -10 -23 7 -22 -28 1 -49 10
-9 19 -23 19 -31 0 -7 5 -13 10 -13 7 0 8 -6 2 -16 -11 -19 -4 -55 12 -66 7
-5 7 -8 -2 -8 -9 0 -11 -7 -7 -21 4 -12 8 -33 10 -48 1 -14 5 -42 9 -61 4 -28
4 -30 -3 -10 -6 17 -9 20 -10 8 -1 -10 -9 -18 -18 -19 -11 0 -13 -3 -5 -6 22
-9 13 -31 -18 -45 -16 -7 -30 -18 -30 -25 0 -18 -18 -25 -49 -18 -32 7 -49 34
-29 47 7 4 11 8 8 9 -43 7 -66 6 -77 -3 -7 -6 -14 -7 -14 -2 -1 5 -2 16 -3 24
-1 10 -14 16 -41 18 -27 2 -46 11 -62 30 -42 48 -44 52 -33 52 5 0 10 5 10 10
0 6 -8 10 -17 10 -13 0 -14 3 -6 11 6 6 9 18 6 25 -3 8 0 14 6 14 6 0 11 7 11
15 0 7 8 18 18 24 16 9 16 10 0 16 -15 6 -16 9 -3 22 8 8 20 11 27 7 7 -5 9
-2 5 8 -3 9 0 24 8 34 13 18 14 18 34 0 28 -25 35 -16 16 20 -13 26 -13 30 1
40 12 9 12 13 2 17 -7 3 3 3 22 1 19 -3 45 -10 57 -16z m-339 -599 c2 -5 9 -9
16 -9 20 0 85 -68 92 -95 7 -27 -22 -162 -37 -170 -4 -3 -6 -30 -4 -60 3 -30
1 -55 -4 -55 -5 0 -14 -14 -20 -31 -7 -20 -17 -30 -28 -29 -30 4 -44 0 -39 -8
8 -13 -53 -34 -78 -28 -20 5 -25 13 -28 53 -2 25 2 57 9 71 7 13 10 29 6 36
-4 6 -6 24 -4 40 2 20 -1 26 -10 21 -8 -5 -10 -4 -5 4 4 6 2 19 -6 28 -11 15
-11 16 5 10 17 -6 25 17 9 27 -11 6 -7 53 7 89 14 36 14 37 -6 38 -17 1 -17 2
0 6 9 2 18 14 19 26 0 12 2 27 3 32 2 6 3 14 4 19 1 11 95 -3 99 -15z"/>
<path d="M6560 2120 c0 -6 18 -10 40 -10 l40 0 0 -124 0 -125 57 -7 56 -7 -6
-327 -6 -327 85 -23 84 -22 98 19 97 19 2 39 c1 22 0 35 -3 28 -3 -7 -12 -9
-20 -6 -8 3 -14 0 -14 -7 0 -8 -16 -9 -55 -5 -43 6 -55 4 -55 -6 0 -11 -2 -11
-10 1 -8 12 -10 12 -10 -5 -1 -18 -2 -18 -10 -3 -7 10 -7 131 -3 333 l8 317
-103 -7 -103 -7 3 123 3 123 -35 7 c-71 14 -140 18 -140 9z"/>
<path d="M6250 2091 c0 -6 11 -11 25 -11 24 0 25 -3 25 -52 0 -29 -3 -83 -6
-120 -6 -59 -9 -67 -30 -72 -23 -6 -24 -11 -24 -84 0 -42 -1 -207 -3 -367 l-2
-289 75 -23 c75 -23 76 -23 173 -7 53 10 97 20 97 25 0 4 9 5 20 2 18 -5 20
-1 19 38 -1 29 -3 37 -7 24 -6 -16 -16 -20 -52 -20 -31 0 -44 -4 -42 -13 1 -8
-8 -12 -25 -11 -16 1 -37 -2 -48 -6 -17 -6 -17 -5 -5 5 13 10 12 11 -7 7 -16
-3 -22 1 -25 17 -2 11 0 228 5 480 4 252 4 462 0 466 -14 13 -163 23 -163 11z"/>
<path d="M7327 2063 c-4 -3 -7 -37 -7 -74 0 -77 -1 -77 -88 -80 -29 -1 -48 -5
-43 -9 6 -3 18 -29 26 -58 27 -89 80 -130 208 -163 44 -11 89 -50 75 -65 -3
-2 -38 0 -78 7 -65 10 -82 9 -161 -12 -49 -12 -89 -28 -89 -34 0 -39 26 -137
46 -178 31 -59 68 -78 213 -108 82 -16 110 -18 155 -10 82 15 182 71 127 71
-10 0 -21 5 -23 12 -3 9 -6 9 -12 0 -4 -7 -2 -12 3 -12 6 0 11 -5 11 -11 0 -5
-5 -7 -12 -3 -7 5 -8 3 -3 -6 6 -10 4 -12 -8 -7 -9 3 -18 1 -21 -6 -5 -9 -7
-9 -12 1 -3 6 -12 12 -20 12 -9 0 -13 4 -10 8 3 5 -9 6 -25 4 -17 -3 -33 -11
-36 -18 -3 -8 -11 -14 -19 -14 -8 0 -14 -5 -14 -11 0 -5 -5 -7 -10 -4 -6 4 -8
10 -5 15 3 4 -3 14 -13 21 -15 12 -16 12 -4 -2 10 -14 10 -18 -4 -23 -22 -8
-20 -10 -54 27 -34 35 -58 105 -62 181 l-3 50 55 11 c30 6 67 14 81 18 25 6
27 4 33 -34 13 -82 52 -112 107 -83 33 17 49 49 49 99 0 46 -15 58 -113 89
-95 29 -144 71 -168 142 -15 44 -17 128 -6 191 7 40 6 43 -18 49 -14 3 -25 10
-25 15 0 11 -14 12 -23 2z"/>
<path d="M5530 2035 c0 -8 5 -15 10 -15 12 0 14 -257 1 -262 -4 -1 -11 -139
-15 -305 -7 -273 -6 -303 8 -303 13 0 16 -14 16 -79 0 -44 -4 -83 -10 -86 -21
-13 -8 -23 64 -49 l73 -26 132 27 131 26 -2 81 c0 45 -3 66 -5 49 -5 -38 -21
-49 -82 -52 -62 -4 -85 -9 -89 -21 -6 -16 -20 -12 -25 8 -4 14 -5 13 -6 -4 0
-11 -8 -21 -16 -21 -8 0 -18 10 -21 21 -4 12 -5 241 -3 511 l4 489 -70 13
c-92 16 -95 16 -95 -2z"/>
<path d="M4640 1823 c0 -87 -3 -202 -7 -255 -5 -86 -8 -98 -25 -98 -15 0 -18
-8 -18 -60 0 -53 2 -60 20 -60 20 0 20 -7 20 -273 l0 -273 69 -34 70 -33 388
74 388 75 3 32 c2 23 -1 32 -12 32 -8 0 -16 5 -18 11 -5 15 -58 0 -58 -17 0
-8 -4 -14 -10 -14 -5 0 -10 4 -10 9 0 13 -102 20 -128 8 -16 -8 -25 -8 -30 0
-4 6 -18 13 -32 17 -19 6 -21 5 -10 -3 30 -21 -7 -34 -97 -37 -124 -2 -123 -2
-123 -20 0 -11 -5 -14 -16 -10 -8 3 -22 -1 -30 -9 -9 -8 -24 -15 -35 -15 -10
0 -19 -5 -19 -11 0 -5 -5 -7 -11 -4 -9 6 -55 -10 -102 -36 -13 -7 -19 -5 -24
7 -3 9 -3 266 1 570 l7 553 -23 6 c-63 14 -114 25 -120 25 -5 0 -8 -71 -8
-157z"/>
<path d="M3390 1231 l0 -650 58 -44 57 -44 183 36 182 35 -1 110 c-1 61 -4 98
-6 81 -11 -97 -10 -95 -58 -95 -43 0 -59 -12 -32 -24 6 -3 -18 -3 -54 0 -44 4
-69 2 -73 -5 -5 -7 1 -11 15 -11 41 0 8 -14 -39 -17 -26 -2 -58 -4 -72 -5 -21
-3 -25 2 -32 37 -4 22 -7 304 -7 627 l-1 587 -54 15 c-30 9 -57 16 -60 16 -3
0 -6 -292 -6 -649z"/>
<path d="M2050 1688 c0 -46 5 -370 10 -721 l10 -639 32 -46 c17 -26 32 -48 33
-49 2 -3 1139 215 1168 223 14 5 17 17 16 87 l-1 82 -13 -55 c-12 -53 -18 -58
-17 -15 1 16 0 16 -4 3 -6 -21 -40 -25 -233 -33 -79 -3 -152 -10 -162 -15 -10
-6 -29 -10 -42 -10 -14 0 -44 -10 -67 -22 -33 -18 -45 -20 -59 -11 -15 9 -23
9 -37 -2 -11 -8 -36 -15 -56 -15 -20 0 -39 -4 -43 -10 -3 -5 -13 -6 -21 -3
-31 12 -222 -30 -236 -51 -6 -8 -8 -8 -8 0 0 15 -91 -15 -106 -35 -8 -10 -13
-11 -18 -2 -5 7 -13 8 -25 1 -16 -8 -19 -4 -24 28 -3 20 -9 296 -12 612 -3
316 -8 607 -10 645 -2 39 -4 77 -5 85 0 14 -47 50 -64 50 -3 0 -6 -37 -6 -82z"/>
<path d="M5255 1619 c-33 -4 -84 -11 -112 -14 -51 -6 -53 -8 -53 -37 0 -27 2
-29 28 -24 15 3 106 15 202 27 96 11 176 22 178 24 6 5 -128 35 -155 34 -15
-1 -55 -5 -88 -10z"/>
<path d="M2840 1339 c-124 -15 -228 -28 -232 -28 -7 -1 -12 -71 -5 -71 50 4
619 79 623 83 3 3 -12 15 -35 26 -50 26 -69 25 -351 -10z"/>
<path d="M1242 1286 c12 -12 16 -26 12 -49 -16 -86 -77 -120 -256 -142 -69 -8
-129 -15 -132 -15 -3 0 -6 -19 -6 -41 l0 -41 58 6 c255 30 328 52 362 108 27
45 26 106 -2 148 -13 19 -30 36 -38 38 -11 4 -11 1 2 -12z"/>
<path d="M3870 1185 l0 -65 139 -208 c134 -200 141 -208 199 -239 l60 -33 161
31 161 31 -2 172 -2 171 -5 -125 c-3 -69 -10 -131 -14 -137 -9 -15 -31 -18
-23 -4 3 5 -1 11 -9 15 -9 3 -15 0 -15 -9 0 -8 -7 -15 -15 -15 -8 0 -15 8 -15
18 0 11 -3 13 -8 6 -4 -7 -38 -15 -76 -19 -44 -5 -63 -11 -55 -16 15 -9 14
-10 -40 -14 -18 -2 -37 -8 -41 -15 -14 -22 -67 16 -90 65 -9 18 -68 106 -89
131 -5 6 -55 81 -111 167 -56 87 -104 157 -106 157 -2 0 -4 -29 -4 -65z"/>
<path d="M5225 1177 c-71 -11 -133 -25 -137 -31 -13 -20 -9 -66 6 -66 33 0
373 61 396 72 24 10 24 11 -25 29 -62 22 -79 22 -240 -4z"/>
<path d="M2910 811 l-295 -46 -3 -48 c-2 -33 1 -47 10 -47 27 0 585 100 629
112 45 13 46 14 25 29 -67 50 -47 50 -366 0z"/>
<path d="M1330 663 c0 -47 -57 -107 -122 -129 -57 -19 -319 -64 -330 -57 -10
5 -10 -88 0 -103 5 -9 51 -4 167 16 182 32 217 42 263 70 72 44 97 151 47 207
l-24 28 -1 -32z"/>
<path d="M1708 252 c-6 -23 -28 -28 -57 -13 -10 6 -23 6 -32 0 -12 -7 -12 -9
1 -10 8 -1 22 -1 30 0 10 0 11 -1 2 -5 -6 -3 -10 -9 -7 -13 2 -5 -6 -8 -18 -7
-12 1 -21 7 -19 14 1 7 -3 12 -9 12 -5 0 -7 5 -4 10 4 7 -2 9 -18 5 -14 -4
-49 -8 -78 -9 -30 -2 -65 -6 -79 -9 -24 -6 -64 -11 -200 -23 -36 -3 -72 -8
-80 -11 -8 -4 -19 -5 -23 -4 -4 0 -10 -5 -13 -14 -5 -12 -8 -12 -20 -1 -12 12
-21 12 -65 -5 -29 -10 -55 -16 -59 -14 -4 3 -30 -5 -56 -17 -27 -12 -92 -27
-144 -34 -52 -7 -118 -17 -147 -22 -29 -5 -54 -5 -55 0 -2 4 -14 0 -28 -9 -14
-10 -40 -19 -57 -19 -34 -2 -83 -28 -83 -44 0 -6 102 -10 274 -10 270 0 276 0
453 34 245 47 511 126 497 147 -3 5 1 6 8 4 16 -6 133 74 123 83 -3 4 -10 0
-14 -7 -7 -11 -9 -11 -13 0 -3 8 -7 5 -10 -9z"/>
</g>
</svg>
