<svg xmlns="http://www.w3.org/2000/svg" viewBox="0 0 24 23" width="24" height="23">
	<style>
		tspan { white-space:pre }
		.shp0 { fill: #199147 } 
	</style>
	<path id="Shape 863" class="shp0" d="M22.23 11.09C21.84 8.77 20.74 6.66 19.07 4.99C17.31 3.24 15.08 2.12 12.62 1.78L12.87 0C15.71 0.4 18.29 1.68 20.33 3.72C22.27 5.66 23.54 8.1 24 10.79L22.23 11.09ZM17.13 6.84C18.29 8.01 19.06 9.48 19.34 11.1L17.57 11.4C17.36 10.15 16.77 9.01 15.87 8.11C14.92 7.16 13.71 6.56 12.38 6.37L12.63 4.59C14.35 4.83 15.9 5.61 17.13 6.84ZM8.51 12.54C9.73 14.05 11.12 15.38 12.77 16.42C13.12 16.64 13.51 16.8 13.88 17C14.07 17.11 14.2 17.08 14.35 16.92C14.91 16.34 15.48 15.78 16.05 15.21C16.8 14.47 17.73 14.47 18.49 15.21C19.4 16.12 20.31 17.03 21.22 17.95C21.98 18.71 21.98 19.65 21.21 20.43C20.7 20.95 20.15 21.45 19.66 21.99C18.95 22.79 18.06 23.05 17.03 22.99C15.54 22.91 14.17 22.42 12.85 21.78C9.92 20.35 7.41 18.37 5.31 15.88C3.75 14.03 2.47 12.01 1.63 9.74C1.22 8.65 0.93 7.52 1.02 6.33C1.07 5.6 1.35 4.97 1.89 4.46C2.47 3.91 3.02 3.33 3.6 2.76C4.34 2.02 5.28 2.02 6.03 2.76C6.5 3.21 6.95 3.68 7.41 4.14C7.86 4.58 8.3 5.03 8.75 5.48C9.53 6.26 9.53 7.18 8.75 7.97C8.19 8.53 7.64 9.1 7.07 9.65C6.92 9.8 6.9 9.92 6.98 10.1C7.36 11 7.9 11.8 8.51 12.54Z" />
</svg>