<svg xmlns="http://www.w3.org/2000/svg" viewBox="0 0 32 32" width="32" height="32">
	<style>
		tspan { white-space:pre }
		.shp0 { fill: #97641f }
	</style>
	<path id="Shape 864" class="shp0" d="M16 1C7.73 1 1 7.73 1 16C1 24.27 7.73 31 16 31C24.27 31 31 24.27 31 16C31 7.73 24.27 1 16 1ZM4.31 16C4.31 15 4.45 14.04 4.68 13.11C4.88 13.42 5.24 13.79 5.88 13.99C6.31 15.51 8.17 16.78 8.17 16.78C8.17 16.78 6.85 18.91 7.43 20.22C8.02 21.54 9.73 21.83 9.82 22.52C9.88 22.89 9.58 24.34 9.3 25.57C6.28 23.45 4.31 19.95 4.31 16ZM12.61 27.19C13.67 25.86 15.43 24.11 15.87 22.47C16.43 20.4 16.07 17.59 14.8 16.13C13.53 14.66 10.75 15.3 10.02 15.05C9.46 14.87 8.82 14.37 8.61 13.88C8.81 13.82 9 13.77 9.22 13.7C13.5 12.26 14.71 7.04 14.77 6.15C14.8 5.56 14.52 4.86 14.32 4.44C14.87 4.36 15.43 4.31 16 4.31C17.41 4.31 18.75 4.57 20 5.03L19.13 6.04C18.94 6.26 18.85 6.56 18.91 6.84C18.96 7.13 19.14 7.38 19.4 7.52C19.69 7.68 20.02 7.79 20.31 7.74C20.81 7.65 22.1 7.03 22.94 6.61C23.22 6.82 23.49 7.04 23.75 7.27C23 7.51 21.6 8.07 20.92 8.63C20.68 8.83 20.64 9.18 20.82 9.44C21.05 9.76 21.27 10.2 20.84 10.32C20.16 10.52 20.65 11.89 21.77 11.98C22.73 12.07 24.67 10.18 26.22 10.33C26.8 11.38 27.23 12.52 27.47 13.73C26.12 13.25 23.76 12.59 22.16 13.15C19.82 13.98 18.14 16.03 20.06 18.18C21.99 20.32 23.33 18.76 23.72 21.1C23.79 21.54 23.55 23.55 23.34 25.09C21.33 26.71 18.78 27.69 16 27.69C14.82 27.69 13.68 27.51 12.61 27.19Z" />
</svg>